<?xml version="1.0" encoding="utf-8"?>
<!-- Generator: Adobe Illustrator 23.1.0, SVG Export Plug-In . SVG Version: 6.00 Build 0)  -->
<svg version="1.1" id="Capa_1" xmlns="http://www.w3.org/2000/svg" xmlns:xlink="http://www.w3.org/1999/xlink" x="0px" y="0px"
	 viewBox="0 0 264 280" style="enable-background:new 0 0 264 280;" xml:space="preserve">
<style type="text/css">
	.st0{fill-rule:evenodd;clip-rule:evenodd;fill:#E6E6E6;}
	.st1{filter:url(#Adobe_OpacityMaskFilter);}
	.st2{fill-rule:evenodd;clip-rule:evenodd;fill:#FFFFFF;}
	.st3{mask:url(#react-mask-4_1_);}
	.st4{fill-rule:evenodd;clip-rule:evenodd;fill:#3F62FE;}
	.st5{fill-rule:evenodd;clip-rule:evenodd;fill:#D0C6AC;}
	.st6{filter:url(#Adobe_OpacityMaskFilter_1_);}
	.st7{mask:url(#react-mask-6_1_);}
	.st8{fill-rule:evenodd;clip-rule:evenodd;fill:#D08B5B;}
	.st9{filter:url(#Adobe_OpacityMaskFilter_2_);}
	.st10{mask:url(#react-mask-6_2_);fill-rule:evenodd;clip-rule:evenodd;fill-opacity:0.1;}
	.st11{fill-rule:evenodd;clip-rule:evenodd;fill:#B7C1DB;}
	.st12{filter:url(#Adobe_OpacityMaskFilter_3_);}
	.st13{mask:url(#react-mask-454_1_);}
	.st14{fill-rule:evenodd;clip-rule:evenodd;fill:#262E33;}
	.st15{filter:url(#Adobe_OpacityMaskFilter_4_);}
	.st16{mask:url(#react-mask-454_2_);fill-rule:evenodd;clip-rule:evenodd;fill:#F4F4F4;}
	.st17{filter:url(#Adobe_OpacityMaskFilter_5_);}
	.st18{mask:url(#react-mask-454_3_);fill-rule:evenodd;clip-rule:evenodd;fill-opacity:0.16;}
	.st19{fill-rule:evenodd;clip-rule:evenodd;fill-opacity:0.7;}
	.st20{filter:url(#Adobe_OpacityMaskFilter_6_);}
	.st21{mask:url(#react-mask-478_1_);fill-rule:evenodd;clip-rule:evenodd;fill:#FFFFFF;}
	.st22{filter:url(#Adobe_OpacityMaskFilter_7_);}
	.st23{mask:url(#react-mask-478_2_);}
	.st24{fill-rule:evenodd;clip-rule:evenodd;fill:#FF4F6D;}
	.st25{fill-rule:evenodd;clip-rule:evenodd;fill-opacity:0.16;}
	.st26{fill-rule:evenodd;clip-rule:evenodd;fill-opacity:0.6;}
	.st27{fill-opacity:0.6;}
	.st28{filter:url(#Adobe_OpacityMaskFilter_8_);}
	.st29{mask:url(#react-mask-419_1_);}
	.st30{fill-rule:evenodd;clip-rule:evenodd;fill:#272C2E;}
	.st31{filter:url(#Adobe_OpacityMaskFilter_9_);}
	.st32{mask:url(#react-mask-420_1_);}
	.st33{fill-rule:evenodd;clip-rule:evenodd;fill:#191716;}
	.st34{fill-rule:evenodd;clip-rule:evenodd;fill:#331B0C;}
	.st35{filter:url(#Adobe_OpacityMaskFilter_10_);}
	.st36{mask:url(#react-mask-424_1_);}
</style>
<desc>Created with getavataaars.com</desc>
<g id="Circle" transform="translate(12.000000, 40.000000)">
	<g id="Circle-Background">
		<circle class="st0" cx="121.2" cy="100.5" r="129"/>
	</g>
	<defs>
		<filter id="Adobe_OpacityMaskFilter" filterUnits="userSpaceOnUse" x="-46" y="-105" width="334.5" height="334.5">
			<feColorMatrix  type="matrix" values="1 0 0 0 0  0 1 0 0 0  0 0 1 0 0  0 0 0 1 0"/>
		</filter>
	</defs>
	<mask maskUnits="userSpaceOnUse" x="-46" y="-105" width="334.5" height="334.5" id="react-mask-4_1_">
		<g class="st1">
			<circle id="react-path-1_1_" class="st2" cx="121.2" cy="100.5" r="129"/>
		</g>
	</mask>
	<g class="st3">
		<polyline class="st4" points="-46,-105 288.5,-105 288.5,229.5 -46,229.5 		"/>
	</g>
</g>
<g id="Mask">
</g>
<g>
	<g id="Body" transform="translate(32.000000, 36.000000)">
		<g>
			<path class="st5" d="M121.3,140.3v17.3h3.8l0,0c37.5,0,67.9,30.4,67.9,67.9v8.5H4.4v-8.5c0-37.5,30.4-67.9,67.9-67.9l0,0H76
				v-17.3c-16.3-7.7-27.9-23.5-29.9-42.2c-5.5-0.8-9.7-5.5-9.7-11.2V73.7c0-5.6,4.1-10.3,9.4-11.2v-5.8l0,0
				c0-29.2,23.7-52.8,52.8-52.8l0,0l0,0c29.2,0,52.8,23.7,52.8,52.8v5.8c5.4,0.9,9.4,5.6,9.4,11.2v13.2c0,5.7-4.2,10.4-9.7,11.2
				C149.3,116.8,137.6,132.6,121.3,140.3z"/>
		</g>
		<defs>
			<filter id="Adobe_OpacityMaskFilter_1_" filterUnits="userSpaceOnUse" x="4.4" y="3.9" width="249" height="264.1">
				<feColorMatrix  type="matrix" values="1 0 0 0 0  0 1 0 0 0  0 0 1 0 0  0 0 0 1 0"/>
			</filter>
		</defs>
		<mask maskUnits="userSpaceOnUse" x="4.4" y="3.9" width="249" height="264.1" id="react-mask-6_1_">
			<g class="st6">
				<path id="react-path-3_1_" class="st2" d="M121.3,140.3v17.3h3.8l0,0c37.5,0,67.9,30.4,67.9,67.9v8.5H4.4v-8.5
					c0-37.5,30.4-67.9,67.9-67.9l0,0H76v-17.3c-16.3-7.7-27.9-23.5-29.9-42.2c-5.5-0.8-9.7-5.5-9.7-11.2V73.7
					c0-5.6,4.1-10.3,9.4-11.2v-5.8l0,0c0-29.2,23.7-52.8,52.8-52.8l0,0l0,0c29.2,0,52.8,23.7,52.8,52.8v5.8
					c5.4,0.9,9.4,5.6,9.4,11.2v13.2c0,5.7-4.2,10.4-9.7,11.2C149.3,116.8,137.6,132.6,121.3,140.3z"/>
			</g>
		</mask>
		<g class="st7">
			<g id="Color" transform="translate(0.000000, 0.000000)">
				<rect x="4.4" y="3.9" class="st8" width="249" height="264.1"/>
			</g>
		</g>
		<defs>
			<filter id="Adobe_OpacityMaskFilter_2_" filterUnits="userSpaceOnUse" x="45.9" y="78.4" width="105.7" height="74.5">
				<feColorMatrix  type="matrix" values="1 0 0 0 0  0 1 0 0 0  0 0 1 0 0  0 0 0 1 0"/>
			</filter>
		</defs>
		<mask maskUnits="userSpaceOnUse" x="45.9" y="78.4" width="105.7" height="74.5" id="react-mask-6_2_">
			<g class="st9">
				<path id="react-path-3_2_" class="st2" d="M121.3,140.3v17.3h3.8l0,0c37.5,0,67.9,30.4,67.9,67.9v8.5H4.4v-8.5
					c0-37.5,30.4-67.9,67.9-67.9l0,0H76v-17.3c-16.3-7.7-27.9-23.5-29.9-42.2c-5.5-0.8-9.7-5.5-9.7-11.2V73.7
					c0-5.6,4.1-10.3,9.4-11.2v-5.8l0,0c0-29.2,23.7-52.8,52.8-52.8l0,0l0,0c29.2,0,52.8,23.7,52.8,52.8v5.8
					c5.4,0.9,9.4,5.6,9.4,11.2v13.2c0,5.7-4.2,10.4-9.7,11.2C149.3,116.8,137.6,132.6,121.3,140.3z"/>
			</g>
		</mask>
		<path id="Neck-Shadow" class="st10" d="M151.5,78.4v21.7c0,29.2-23.7,52.8-52.8,52.8s-52.8-23.7-52.8-52.8V78.4v14.1
			c0,29.2,23.7,52.8,52.8,52.8s52.8-23.7,52.8-52.8V78.4z"/>
	</g>
	<g transform="translate(0.000000, 170.000000)">
		<g id="Hoodie">
			<path class="st11" d="M108,8.6C91.1,10.5,78.1,15.7,77.9,29C53.5,39.3,36.4,63.4,36.4,91.6l0,0v8.5H225v-8.5
				c0-28.1-17.1-52.3-41.5-62.6c-0.3-13.3-13.3-18.5-30.2-20.4v17.9l0,0c0,12.5-10.1,22.6-22.6,22.6l0,0C118.2,49.1,108,39,108,26.5
				V8.6z"/>
		</g>
		<defs>
			<filter id="Adobe_OpacityMaskFilter_3_" filterUnits="userSpaceOnUse" x="6.2" y="-3.7" width="249" height="103.8">
				<feColorMatrix  type="matrix" values="1 0 0 0 0  0 1 0 0 0  0 0 1 0 0  0 0 0 1 0"/>
			</filter>
		</defs>
		<mask maskUnits="userSpaceOnUse" x="6.2" y="-3.7" width="249" height="103.8" id="react-mask-454_1_">
			<g class="st12">
				<path id="react-path-453_1_" class="st2" d="M108,8.6C91.1,10.5,78.1,15.7,77.9,29C53.5,39.3,36.4,63.4,36.4,91.6l0,0v8.5H225
					v-8.5c0-28.1-17.1-52.3-41.5-62.6c-0.3-13.3-13.3-18.5-30.2-20.4v17.9l0,0c0,12.5-10.1,22.6-22.6,22.6l0,0
					C118.2,49.1,108,39,108,26.5V8.6z"/>
			</g>
		</mask>
		<g class="st13">
			<rect x="6.2" y="-3.7" class="st14" width="249" height="103.8"/>
		</g>
		<defs>
			<filter id="Adobe_OpacityMaskFilter_4_" filterUnits="userSpaceOnUse" x="95.8" y="51.2" width="69.8" height="48.9">
				<feColorMatrix  type="matrix" values="1 0 0 0 0  0 1 0 0 0  0 0 1 0 0  0 0 0 1 0"/>
			</filter>
		</defs>
		<mask maskUnits="userSpaceOnUse" x="95.8" y="51.2" width="69.8" height="48.9" id="react-mask-454_2_">
			<g class="st15">
				<path id="react-path-453_2_" class="st2" d="M108,8.6C91.1,10.5,78.1,15.7,77.9,29C53.5,39.3,36.4,63.4,36.4,91.6l0,0v8.5H225
					v-8.5c0-28.1-17.1-52.3-41.5-62.6c-0.3-13.3-13.3-18.5-30.2-20.4v17.9l0,0c0,12.5-10.1,22.6-22.6,22.6l0,0
					C118.2,49.1,108,39,108,26.5V8.6z"/>
			</g>
		</mask>
		<path id="Straps" class="st16" d="M102.4,54.5v45.5h-6.6V51.2C97.9,52.4,100.1,53.5,102.4,54.5z M165.6,51.2v38.1
			c0,1.8-1.5,3.3-3.3,3.3S159,91,159,89.2V54.5C161.3,53.5,163.5,52.4,165.6,51.2z"/>
		<defs>
			<filter id="Adobe_OpacityMaskFilter_5_" filterUnits="userSpaceOnUse" x="68" y="8.3" width="125.5" height="52.1">
				<feColorMatrix  type="matrix" values="1 0 0 0 0  0 1 0 0 0  0 0 1 0 0  0 0 0 1 0"/>
			</filter>
		</defs>
		<mask maskUnits="userSpaceOnUse" x="68" y="8.3" width="125.5" height="52.1" id="react-mask-454_3_">
			<g class="st17">
				<path id="react-path-453_3_" class="st2" d="M108,8.6C91.1,10.5,78.1,15.7,77.9,29C53.5,39.3,36.4,63.4,36.4,91.6l0,0v8.5H225
					v-8.5c0-28.1-17.1-52.3-41.5-62.6c-0.3-13.3-13.3-18.5-30.2-20.4v17.9l0,0c0,12.5-10.1,22.6-22.6,22.6l0,0
					C118.2,49.1,108,39,108,26.5V8.6z"/>
			</g>
		</mask>
		<path id="Shadow" class="st18" d="M92,8.3c-14.2,2.7-24,8-24,18.5c0,18.6,31.2,33.7,62.7,33.7s62.7-15.1,62.7-33.7
			c0-10.4-9.8-15.8-24-18.5c8.6,3.2,14.1,8.5,14.1,17.3c0,19.2-26.2,34.8-52.8,34.8S77.9,44.8,77.9,25.6C77.9,16.8,83.4,11.5,92,8.3
			z"/>
	</g>
	<g id="Face" transform="translate(76.000000, 82.000000)">
		<g transform="translate(2.000000, 52.000000)">
			<g id="Mouth">
				<path class="st19" d="M34.9,12.6c1,9,8.6,15.9,17.8,15.9c9.2,0,16.9-7,17.8-16c0.1-0.7-0.7-1.9-1.7-1.9c-14,0-24.8,0-32,0
					C35.7,10.6,34.8,11.7,34.9,12.6z"/>
			</g>
			<defs>
				<filter id="Adobe_OpacityMaskFilter_6_" filterUnits="userSpaceOnUse" x="38.5" y="0.2" width="29.2" height="15.1">
					<feColorMatrix  type="matrix" values="1 0 0 0 0  0 1 0 0 0  0 0 1 0 0  0 0 0 1 0"/>
				</filter>
			</defs>
			<mask maskUnits="userSpaceOnUse" x="38.5" y="0.2" width="29.2" height="15.1" id="react-mask-478_1_">
				<g class="st20">
					<path id="react-path-477_1_" class="st2" d="M34.9,12.6c1,9,8.6,15.9,17.8,15.9c9.2,0,16.9-7,17.8-16c0.1-0.7-0.7-1.9-1.7-1.9
						c-14,0-24.8,0-32,0C35.7,10.6,34.8,11.7,34.9,12.6z"/>
				</g>
			</mask>
			<path id="Teeth" class="st21" d="M43.3,0.2h19.8c2.6,0,4.7,2.1,4.7,4.7v5.7c0,2.6-2.1,4.7-4.7,4.7H43.3c-2.6,0-4.7-2.1-4.7-4.7
				V4.9C38.5,2.3,40.6,0.2,43.3,0.2z"/>
			<defs>
				<filter id="Adobe_OpacityMaskFilter_7_" filterUnits="userSpaceOnUse" x="37.6" y="21" width="30.2" height="20.8">
					<feColorMatrix  type="matrix" values="1 0 0 0 0  0 1 0 0 0  0 0 1 0 0  0 0 0 1 0"/>
				</filter>
			</defs>
			<mask maskUnits="userSpaceOnUse" x="37.6" y="21" width="30.2" height="20.8" id="react-mask-478_2_">
				<g class="st22">
					<path id="react-path-477_2_" class="st2" d="M34.9,12.6c1,9,8.6,15.9,17.8,15.9c9.2,0,16.9-7,17.8-16c0.1-0.7-0.7-1.9-1.7-1.9
						c-14,0-24.8,0-32,0C35.7,10.6,34.8,11.7,34.9,12.6z"/>
				</g>
			</mask>
			<g id="Tongue" class="st23">
				<g transform="translate(38.000000, 24.000000)">
					<circle class="st24" cx="10" cy="7.4" r="10.4"/>
					<circle class="st24" cx="19.4" cy="7.4" r="10.4"/>
				</g>
			</g>
		</g>
		<g transform="translate(28.000000, 40.000000)">
			<path id="Nose" class="st25" d="M15.4,6.6c0,4.2,5.1,7.5,11.3,7.5l0,0c6.3,0,11.3-3.4,11.3-7.5"/>
		</g>
		<g transform="translate(0.000000, 8.000000)">
			<path id="Closed-Eye" class="st26" d="M17.1,26.8c1.7,3.6,5.7,6.1,10.2,6.1c4.5,0,8.5-2.5,10.2-6c0.5-1.1-0.2-1.9-1-1.3
				c-2.3,2-5.6,3.2-9.2,3.2c-3.5,0-6.7-1.2-9-3C17.5,25.1,16.6,25.8,17.1,26.8z"/>
			<path class="st26" d="M71.8,26.8c1.7,3.6,5.7,6.1,10.2,6.1c4.5,0,8.5-2.5,10.2-6c0.5-1.1-0.2-1.9-1-1.3c-2.3,2-5.6,3.2-9.2,3.2
				c-3.5,0-6.7-1.2-9-3C72.2,25.1,71.3,25.8,71.8,26.8z"/>
		</g>
		<g>
			<path id="Eyebrow" class="st27" d="M16.6,14.6c4.2-6,13.2-9,22.4-6C40,9,41,8.4,41.4,7.4c0.3-1-0.2-2.1-1.2-2.4
				c-10.8-3.5-21.5,0.1-26.6,7.4c-0.6,0.8-0.4,2,0.4,2.6S16,15.5,16.6,14.6z"/>
			<path class="st27" d="M92.8,21.2c-3.7-5.2-13.8-8.1-22.5-6c-1,0.2-2-0.4-2.3-1.4c-0.2-1,0.4-2,1.4-2.3
				c10.1-2.5,21.9,0.9,26.5,7.4c0.6,0.8,0.4,2-0.4,2.6S93.4,22.1,92.8,21.2z"/>
		</g>
	</g>
	<defs>
		<filter id="Adobe_OpacityMaskFilter_8_" filterUnits="userSpaceOnUse" x="21.3" y="20.1" width="270.7" height="283.9">
			<feColorMatrix  type="matrix" values="1 0 0 0 0  0 1 0 0 0  0 0 1 0 0  0 0 0 1 0"/>
		</filter>
	</defs>
	<mask maskUnits="userSpaceOnUse" x="21.3" y="20.1" width="270.7" height="283.9" id="react-mask-419_1_">
		<g class="st28">
			<rect id="react-path-421_1_" x="6.2" y="5.9" class="st2" width="249" height="264.1"/>
		</g>
	</mask>
	<g class="st29">
		<g transform="translate(-1.000000, 0.000000)">
			<g id="Hair" transform="translate(40.000000, 15.000000)">
				<g>
					<path class="st30" d="M23.8,153.7V70.2c0-3.3,0.4-6.6,1.1-9.7c2.9-18.9,13.8-33.9,26.3-43.2C69.9,3.4,101.5-0.6,112.5,16
						c8.2-3.6,20.3-0.3,29.2,8c9,8.9,16.2,28.5,11.9,44.5c0.1,1.2,0.1,2.4,0.1,3.6v20.6c-0.8-4.7-4.6-8.4-9.3-9.2v-0.2
						c-5.7-20.3-22.4-29.6-32.6-38.9C96,62.3,46.2,62.4,29.4,97.5v9.4c0,5.7,4.2,10.4,9.6,11.2c1.6,19.1,13.5,35.3,30,43.2v0.4
						C71.8,203,62.8,254.9,4,239C16.8,231.5,23.6,183.4,23.8,153.7z M114.3,161.3c16.5-7.9,28.3-24.1,30-43.2
						c4.8-0.7,8.6-4.4,9.5-9.2v1.3l0,0c0,14.9,3.5,29.6,10.3,42.9l25.4,49.7c6.6,12.8,4.6,27.8-3.7,38.5
						c-2.7-35.1-32-62.7-67.7-62.7l0,0h-3.8V161.3z"/>
				</g>
				<defs>
					<filter id="Adobe_OpacityMaskFilter_9_" filterUnits="userSpaceOnUse" x="4" y="5.1" width="249" height="264.1">
						<feColorMatrix  type="matrix" values="1 0 0 0 0  0 1 0 0 0  0 0 1 0 0  0 0 0 1 0"/>
					</filter>
				</defs>
				<mask maskUnits="userSpaceOnUse" x="4" y="5.1" width="249" height="264.1" id="react-mask-420_1_">
					<g class="st31">
						<path id="react-path-422_1_" class="st2" d="M23.8,153.7V70.2c0-3.3,0.4-6.6,1.1-9.7c2.9-18.9,13.8-33.9,26.3-43.2
							C69.9,3.4,101.5-0.6,112.5,16c8.2-3.6,20.3-0.3,29.2,8c9,8.9,16.2,28.5,11.9,44.5c0.1,1.2,0.1,2.4,0.1,3.6v20.6
							c-0.8-4.7-4.6-8.4-9.3-9.2v-0.2c-5.7-20.3-22.4-29.6-32.6-38.9C96,62.3,46.2,62.4,29.4,97.5v9.4c0,5.7,4.2,10.4,9.6,11.2
							c1.6,19.1,13.5,35.3,30,43.2v0.4C71.8,203,62.8,254.9,4,239C16.8,231.5,23.6,183.4,23.8,153.7z M114.3,161.3
							c16.5-7.9,28.3-24.1,30-43.2c4.8-0.7,8.6-4.4,9.5-9.2v1.3l0,0c0,14.9,3.5,29.6,10.3,42.9l25.4,49.7
							c6.6,12.8,4.6,27.8-3.7,38.5c-2.7-35.1-32-62.7-67.7-62.7l0,0h-3.8V161.3z"/>
					</g>
				</mask>
				<g class="st32">
					<g transform="translate(0.000000, 0.000000) ">
						<rect x="4" y="5.1" class="st33" width="249" height="264.1"/>
					</g>
				</g>
			</g>
			<path class="st25" d="M69.4,112.5C86.2,82,136,82,151.9,66.5c10.2,8,26.8,14.2,32.6,31.8c-5.7-20.2-22.4-29.5-32.6-38.8
				C136,77.3,86.2,77.4,69.4,112.5z"/>
			<g transform="translate(49.000000, 72.000000)">
				<g id="Lite-Beard">
					<path class="st34" d="M99.1,94.5c-2.4,2.2-4.9,3.1-8.1,2.5c-0.5-0.1-2.8-4.3-8.4-4.3c-5.6,0-7.8,4.2-8.4,4.3
						c-3.2,0.7-5.7-0.3-8.1-2.5c-4.5-4.1-8.2-9.7-5.9-15.8c1.2-3.2,3-6.7,6.5-7.7c3.7-1.1,8.8,0,12.5-0.7c1.2-0.2,2.5-0.7,3.4-1.4
						c0.9,0.7,2.2,1.1,3.4,1.4c3.7,0.7,8.8-0.3,12.5,0.7c3.4,1,5.3,4.5,6.5,7.7C107.3,84.8,103.6,90.4,99.1,94.5 M135.6,26.4
						c-3.2,7.9-2,17.8-2.6,26.1c-0.5,6.8-1.9,16.9-7.9,21.3c-3.1,2.2-8.7,6-12.7,4.9c-2.8-0.7-3.1-8.6-6.7-11.6
						c-4.1-3.4-9.3-4.8-14.4-4.6c-2.2,0.1-6.8,0.1-8.6,1.8c-1.9-1.7-6.4-1.7-8.6-1.8c-5.2-0.2-10.3,1.2-14.4,4.6
						C56,70,55.7,78,52.9,78.7c-4,1-9.6-2.7-12.7-4.9c-6-4.4-7.4-14.5-7.9-21.3c-0.6-8.3,0.6-18.2-2.6-26.1
						c-1.6,0-0.5,15.2-0.5,15.2v19.2c0,14.4,9,36,29,44.2c4.9,2,15.9,5.3,24.4,5.3s19.5-3,24.4-5c20-8.2,29-30.1,29-44.6V41.6
						C136.1,41.6,137.2,26.4,135.6,26.4"/>
				</g>
				<defs>
					<filter id="Adobe_OpacityMaskFilter_10_" filterUnits="userSpaceOnUse" x="-26.7" y="1.9" width="249" height="230.2">
						<feColorMatrix  type="matrix" values="1 0 0 0 0  0 1 0 0 0  0 0 1 0 0  0 0 0 1 0"/>
					</filter>
				</defs>
				<mask maskUnits="userSpaceOnUse" x="-26.7" y="1.9" width="249" height="230.2" id="react-mask-424_1_">
					<g class="st35">
						<path id="react-path-425_1_" class="st2" d="M99.1,94.5c-2.4,2.2-4.9,3.1-8.1,2.5c-0.5-0.1-2.8-4.3-8.4-4.3
							c-5.6,0-7.8,4.2-8.4,4.3c-3.2,0.7-5.7-0.3-8.1-2.5c-4.5-4.1-8.2-9.7-5.9-15.8c1.2-3.2,3-6.7,6.5-7.7c3.7-1.1,8.8,0,12.5-0.7
							c1.2-0.2,2.5-0.7,3.4-1.4c0.9,0.7,2.2,1.1,3.4,1.4c3.7,0.7,8.8-0.3,12.5,0.7c3.4,1,5.3,4.5,6.5,7.7
							C107.3,84.8,103.6,90.4,99.1,94.5 M135.6,26.4c-3.2,7.9-2,17.8-2.6,26.1c-0.5,6.8-1.9,16.9-7.9,21.3c-3.1,2.2-8.7,6-12.7,4.9
							c-2.8-0.7-3.1-8.6-6.7-11.6c-4.1-3.4-9.3-4.8-14.4-4.6c-2.2,0.1-6.8,0.1-8.6,1.8c-1.9-1.7-6.4-1.7-8.6-1.8
							c-5.2-0.2-10.3,1.2-14.4,4.6C56,70,55.7,78,52.9,78.7c-4,1-9.6-2.7-12.7-4.9c-6-4.4-7.4-14.5-7.9-21.3
							c-0.6-8.3,0.6-18.2-2.6-26.1c-1.6,0-0.5,15.2-0.5,15.2v19.2c0,14.4,9,36,29,44.2c4.9,2,15.9,5.3,24.4,5.3s19.5-3,24.4-5
							c20-8.2,29-30.1,29-44.6V41.6C136.1,41.6,137.2,26.4,135.6,26.4"/>
					</g>
				</mask>
				<g class="st36">
					<g transform="translate(-32.000000, 0.000000)">
						<rect x="5.3" y="1.9" class="st33" width="249" height="230.2"/>
					</g>
				</g>
			</g>
		</g>
	</g>
</g>
</svg>
