<?xml version="1.0" encoding="utf-8"?>
<!-- Generator: Adobe Illustrator 23.1.0, SVG Export Plug-In . SVG Version: 6.00 Build 0)  -->
<svg version="1.1" id="Capa_1" xmlns="http://www.w3.org/2000/svg" xmlns:xlink="http://www.w3.org/1999/xlink" x="0px" y="0px"
	 viewBox="0 0 180 50" style="enable-background:new 0 0 180 50;" xml:space="preserve">
<style type="text/css">
	.st0{fill:#2B365A;}
	.st1{fill:none;stroke:#6C63FF;stroke-width:3;stroke-miterlimit:10;}
	.st2{fill:#6C63FF;}
	.st3{opacity:0.19;fill:#6C63FF;enable-background:new    ;}
	.st4{fill:none;}
</style>
<symbol  id="Nuevo_símbolo_6" viewBox="-128 -31.5 250.8 62.9">
	<g>
		<path class="st0" d="M-3.8,13.9h6.1V3.5h12v10.4h6.1V-14h-6.1v12.1h-12V-14h-6.1C-3.8-14-3.8,13.9-3.8,13.9z"/>
		<path class="st0" d="M43.8-14h-5.7v2.6H38c-0.8-1.5-2.7-3.1-5.6-3.1c-6,0-7.1,3.9-7.1,9.1V5.2h5.9v-9.4c0-2.2,0-5,3.1-5
			s3.5,2.4,3.5,4.9v9.5h5.9L43.8-14L43.8-14z"/>
		<path class="st0" d="M48,5.2h5.7V2.6h0.1c0.8,1.5,2.7,3.1,5.6,3.1c6,0,7.1-3.9,7.1-9.1V-14h-5.9v9.4c0,2.2,0,5-3.1,5S54-2,54-4.5
			V-14h-5.9L48,5.2L48,5.2z"/>
		<path class="st0" d="M83.6,0.5h-5.2v-6.4c0-2,0.2-3.5,2.8-3.5c0.6,0,1.9,0.1,2.4,0.6v-4.9c-1.3-0.5-2.8-0.6-4.1-0.6
			c-3.9,0-7,1.6-7,5.8v9.1h-3.8v4.7h3.8v5.7h5.9V5.2h5.2C83.7,5.2,83.7,0.5,83.6,0.5z"/>
		<path class="st0" d="M104.8-10.7c-1.9-2.4-5-3.8-8.1-3.8c-5.9,0-10.6,3.9-10.6,10.1S90.8,5.7,96.8,5.7c5.5,0,9-3.9,9-10.1v-1.9H92
			c0.5-2.2,2.2-3.7,4.5-3.7c1.9,0,3.2,1,4.2,2.3L104.8-10.7z M99.8-2.2c0,2-1.5,3.6-3.6,3.6c-2.6,0-4-1.8-4.2-3.6H99.8z"/>
		<path class="st0" d="M109.3,5.2h5.9V2.1h0.1c1.3,2.3,2.9,3.5,5.5,3.5c0.7,0,1.4,0,2-0.2V0.1c-0.8,0.2-1.7,0.4-2.5,0.4
			c-4.5,0-5-2.6-5-6.4v-8h-5.9L109.3,5.2L109.3,5.2z"/>
	</g>
	<g>
		<path class="st1" d="M-33.6-30h-75.7c-9.5,0-17.2,7-17.2,15.6V30h92.1c9.9,0,18-7.3,18-16.3V-30H-33.6z"/>
		<g>
			<path class="st2" d="M-99.6,11.8V-4.6c0-3-0.7-5.2-2.2-6.9c-1.5-1.6-3.7-2.5-6.7-2.5c-1.5,0-3,0.2-4.4,0.5v5.3
				c0.9-0.2,1.7-0.3,2.5-0.3c1.3,0,2.3,0.3,2.9,0.9s1,1.7,1,3.2v16.1L-99.6,11.8L-99.6,11.8z"/>
			<path class="st2" d="M-85.4,5.9c3.3,0,5.9-0.9,7.9-2.7S-74.6-1-74.6-4s-1-5.4-3-7.2s-4.6-2.7-7.9-2.7s-5.9,0.9-7.9,2.7
				s-3,4.2-3,7.1c0,3.1,1,5.5,2.9,7.3C-91.5,5-88.8,5.9-85.4,5.9z M-85.5,1.4c-1.2,0-2.2-0.5-3-1.5s-1.2-2.3-1.2-3.8
				c0-1.6,0.4-3,1.2-4c0.8-1,1.8-1.5,3-1.5s2.2,0.5,3,1.5s1.2,2.3,1.2,3.9s-0.4,3-1.2,4C-83.2,0.9-84.3,1.4-85.5,1.4z"/>
			<path class="st2" d="M-64.9-10.6L-64.9-10.6c-0.1-0.9-0.1-1.9-0.2-2.8h-6.2c0.1,1.3,0.2,3.2,0.2,5.6v18.5c0,1.8,1.5,3.3,3.3,3.3
				l0,0c1.8,0,3.3-1.5,3.3-3.3V8.3c0-2.1,0-4-0.1-5.7h0.1c1.5,2.2,3.6,3.2,6.2,3.2c2.4,0,4.4-0.9,5.8-2.7C-51,1.3-50.3-1-50.3-4
				s-0.8-5.4-2.3-7.3c-1.6-1.9-3.6-2.8-6.1-2.8C-61.6-14-63.7-12.9-64.9-10.6z M-60.8,1C-62,1-63,0.5-63.7-0.4
				c-0.8-0.9-1.1-2.1-1.1-3.6c0-1.6,0.4-2.8,1.1-3.7s1.7-1.4,3-1.4c1.2,0,2.1,0.5,2.8,1.4s1,2.2,1,3.8c0,1.5-0.3,2.7-1,3.6
				C-58.7,0.6-59.7,1-60.8,1z"/>
			<path class="st2" d="M-33.2,4.9l-0.5-4.5c-1.8,0.8-3.6,1.3-5.2,1.3c-1.7,0-2.6-0.5-2.6-1.6c0-0.4,0.2-0.8,0.6-1
				c0.4-0.2,1.4-0.5,2.8-0.8c0.9-0.2,1.7-0.4,2.3-0.6s1.2-0.5,1.9-0.9c0.6-0.4,1.1-1,1.4-1.7S-32-6.4-32-7.4c0-2-0.8-3.6-2.3-4.7
				s-3.8-1.9-6.5-1.9c-2.3,0-4.6,0.3-6.8,1l0.3,4.7c2.1-0.9,4.2-1.4,6.3-1.4c1.8,0,2.6,0.5,2.6,1.5c0,0.5-0.2,0.8-0.7,1.1
				c-0.4,0.2-1.4,0.5-2.9,0.9c-2.1,0.5-3.5,1.2-4.4,2c-0.9,0.9-1.4,2.1-1.4,3.7c0,1.9,0.7,3.4,2.2,4.6c1.5,1.1,3.5,1.7,6.2,1.7
				C-36.8,5.9-34.8,5.5-33.2,4.9z"/>
		</g>
	</g>
	<g>
		<g>
			<path class="st2" d="M-70.5,9.6c-0.7,0.1-0.7,0.6-0.7,1.3c-0.1,1-0.7,1.6-1.7,2.4c-0.9,0.7-2,1.2-3,1.5c-1.5,0.5-3,0.6-4.5,1.1
				c-0.4,0.1-0.8,0.3-1.1,0.5c-0.3,0.3-0.6,0.6-0.8,1c-0.3,0.6-0.5,1.3-0.7,2c0.1,0,0.2-0.1,0.3-0.2c0.3-0.5,0.5-1,0.8-1.5
				S-81,17-80.4,17c0.2,0,0.4,0.1,0.5,0.3c0,0.1,0,0.2,0,0.4c-0.2,0.9-0.6,1.7-0.9,2.6c-0.2,0.9-0.4,1.8-0.1,2.7
				c0.2,0,0.2-0.3,0.3-0.4c0.1-1.6,0.7-3.2,1.7-4.5c0.3-0.4,0.7-0.8,1.2-1.1c0.2-0.1,0.4-0.2,0.6-0.1s0.2,0.3,0.2,0.6
				c0,1-0.2,2,0.1,2.9c0.1,0,0.2-0.2,0.2-0.3c0.2-0.6,0.2-1.2,0.3-1.7c0.1-0.6,0.3-1.2,0.8-1.6c0.4-0.4,1-0.6,1.5-0.8
				c0.6-0.3,1.3-0.7,1.8-1.2c0.1-0.1,0.3-0.3,0.5-0.2c0.2,0,0.3,0.3,0.4,0.5c0.1,0.3,0.2,1,0.4,1c0.2,0,0.3-0.2,0.3-0.3
				c0-0.2,0-0.3,0-0.5c-0.1-0.7,0.1-1.4,0.5-2c0.3-0.4,0.7-0.7,1.1-1.1c0.3-0.4,0.7-1.2,0.3-1.6C-69.2,9.9-69.9,9.5-70.5,9.6z"/>
			<g>
				<path class="st2" d="M-71.1,15.8c-0.1-0.2-0.1-0.5-0.2-0.7c0,0,0,0.1,0.1,0.1C-71.2,15.3-71.2,15.6-71.1,15.8z"/>
				<path class="st2" d="M-76.9,17.3v-0.1c0.1,0.1,0.1,0.3,0.1,0.5c0,0.9-0.2,1.7,0,2.6l0,0C-77.2,19.3-76.9,18.3-76.9,17.3z"/>
				<path class="st2" d="M-79.9,17.5c0-0.1,0-0.1,0-0.2l0.1,0.1c0,0.1,0,0.2,0,0.4c-0.2,0.9-0.6,1.7-0.9,2.6
					c-0.2,0.8-0.3,1.6-0.2,2.4l0,0c-0.3-0.9-0.1-1.8,0.1-2.7C-80.5,19.3-80.2,18.4-79.9,17.5z"/>
				<path class="st2" d="M-68.7,10.6c-0.4-0.4-1.1-0.7-1.7-0.7c-0.7,0.1-0.7,0.6-0.7,1.3c-0.1,1-0.7,1.6-1.7,2.4
					c-0.9,0.7-2,1.2-3,1.5c-1.5,0.5-3,0.6-4.5,1.1c-0.4,0.1-0.8,0.3-1.1,0.5c-0.3,0.3-0.6,0.6-0.8,1c-0.3,0.5-0.5,1-0.6,1.6
					c-0.1,0-0.1,0.1-0.2,0.1c0.1-0.7,0.3-1.3,0.7-2c0.2-0.4,0.4-0.7,0.8-1c0.3-0.2,0.7-0.4,1.1-0.5c1.5-0.5,3-0.7,4.5-1.1
					c1.1-0.3,2.2-0.8,3-1.5c1-0.8,1.6-1.4,1.7-2.4c0.1-0.7,0-1.2,0.7-1.3c0.6-0.1,1.3,0.2,1.7,0.7C-68.7,10.4-68.6,10.5-68.7,10.6
					C-68.6,10.7-68.6,10.6-68.7,10.6z"/>
			</g>
			<path class="st3" d="M-70.9,13.2c0.3-0.5,0.6-1.1,0.7-1.7c0-0.2,0.1-0.4,0.2-0.6c0.1-0.2,0.3-0.3,0.5-0.2s0.3,0.3,0.2,0.4
				c0,0.2-0.1,0.3-0.2,0.5c-0.4,0.5-0.9,0.9-1.1,1.5c-0.1,0.3-0.1,0.8-0.4,0.9C-71.4,14.3-70.9,13.4-70.9,13.2z"/>
			<path class="st3" d="M-76.7,18.3c0.1-0.2,0.1-0.5,0.1-0.8s0-0.6,0.1-0.9s0.4-0.5,0.8-0.6c0.1,0,0.2,0,0.2,0.1s-0.1,0.1-0.2,0.1
				c-0.3,0.1-0.5,0.4-0.6,0.8s-0.2,0.9-0.3,1.4C-76.5,18.9-76.7,18.6-76.7,18.3z"/>
			<path class="st3" d="M-79.6,18.1c0.3-0.3,0.6-0.8,0.8-1.2c0.1-0.1,0.1-0.2,0.2-0.3c0.1-0.1,0.2-0.1,0.3,0
				c0.1,0.1,0.1,0.2,0.1,0.3c0,0-0.1,0.1-0.2,0.1c-0.3,0.1-0.6,0.4-0.7,0.7c-0.1,0.2-0.3,0.5-0.4,0.7
				C-79.8,18.6-79.8,18.3-79.6,18.1z"/>
		</g>
		<g>
			<path class="st2" d="M-65.4,9.6c0.7,0.1,0.7,0.6,0.7,1.3c0.1,1,0.7,1.6,1.7,2.4c0.9,0.7,2,1.2,3,1.5c1.5,0.5,3,0.6,4.5,1.1
				c0.4,0.1,0.8,0.3,1.1,0.5c0.3,0.3,0.6,0.6,0.8,1c0.3,0.6,0.5,1.3,0.7,2c-0.1,0-0.2-0.1-0.3-0.2c-0.3-0.5-0.5-1-0.8-1.5
				s-0.8-0.8-1.4-0.8c-0.2,0-0.4,0.1-0.5,0.3c0,0.1,0,0.2,0,0.4c0.2,0.9,0.6,1.7,0.9,2.6c0.2,0.9,0.4,1.8,0.1,2.7
				c-0.2,0-0.2-0.3-0.3-0.4c-0.1-1.6-0.7-3.2-1.7-4.5c-0.3-0.4-0.7-0.8-1.2-1.1c-0.2-0.1-0.4-0.2-0.6-0.1c-0.2,0.1-0.2,0.3-0.2,0.6
				c0,1,0.2,2-0.1,2.9c-0.1,0-0.2-0.2-0.2-0.3c-0.2-0.6-0.2-1.2-0.3-1.7c-0.1-0.6-0.3-1.2-0.8-1.6c-0.4-0.4-1-0.6-1.5-0.8
				c-0.6-0.3-1.3-0.7-1.8-1.2c-0.1-0.1-0.3-0.3-0.5-0.2c-0.2,0-0.3,0.3-0.4,0.5c-0.1,0.3-0.2,1-0.4,1s-0.3-0.2-0.3-0.3
				c0-0.2,0-0.3,0-0.5c0.1-0.7-0.1-1.4-0.5-2c-0.3-0.4-0.7-0.7-1.1-1.1c-0.3-0.4-0.7-1.2-0.3-1.6C-66.7,9.9-66,9.5-65.4,9.6z"/>
			<g>
				<path class="st2" d="M-64.7,15.8c0.1-0.2,0.1-0.5,0.2-0.7c0,0,0,0.1-0.1,0.1C-64.6,15.3-64.7,15.6-64.7,15.8z"/>
				<path class="st2" d="M-58.9,17.3v-0.1c-0.1,0.1-0.1,0.3-0.1,0.5c0,0.9,0.2,1.7,0,2.6l0,0C-58.7,19.3-59,18.3-58.9,17.3z"/>
				<path class="st2" d="M-55.9,17.5c0-0.1,0-0.1,0-0.2l-0.1,0.1c0,0.1,0,0.2,0,0.4c0.2,0.9,0.6,1.7,0.9,2.6
					c0.2,0.8,0.3,1.6,0.2,2.4l0,0c0.3-0.9,0.1-1.8-0.1-2.7C-55.3,19.3-55.7,18.4-55.9,17.5z"/>
				<path class="st2" d="M-67.2,10.6c0.4-0.4,1.1-0.7,1.7-0.7c0.7,0.1,0.7,0.6,0.7,1.3c0.1,1,0.7,1.6,1.7,2.4c0.9,0.7,2,1.2,3,1.5
					c1.5,0.5,3,0.6,4.5,1.1c0.4,0.1,0.8,0.3,1.1,0.5c0.3,0.3,0.6,0.6,0.8,1c0.3,0.5,0.5,1,0.6,1.6c0.1,0,0.1,0.1,0.2,0.1
					c-0.1-0.7-0.3-1.3-0.7-2c-0.2-0.4-0.4-0.7-0.8-1c-0.3-0.2-0.7-0.4-1.1-0.5c-1.5-0.5-3-0.7-4.5-1.1c-1.1-0.3-2.2-0.8-3-1.5
					c-1-0.8-1.6-1.4-1.7-2.4c-0.1-0.7,0-1.2-0.7-1.3c-0.6-0.1-1.3,0.2-1.7,0.7C-67.2,10.4-67.2,10.5-67.2,10.6
					C-67.2,10.7-67.2,10.6-67.2,10.6z"/>
			</g>
			<path class="st3" d="M-65,13.2c-0.3-0.5-0.6-1.1-0.7-1.7c0-0.2-0.1-0.4-0.2-0.6c-0.1-0.2-0.3-0.3-0.5-0.2s-0.3,0.3-0.2,0.4
				c0,0.2,0.1,0.3,0.2,0.5c0.4,0.5,0.9,0.9,1.1,1.5c0.1,0.3,0.1,0.8,0.4,0.9C-64.5,14.3-64.9,13.4-65,13.2z"/>
			<path class="st3" d="M-59.2,18.3c-0.1-0.2-0.1-0.5-0.1-0.8s0-0.6-0.1-0.9s-0.4-0.5-0.8-0.6c-0.1,0-0.2,0-0.2,0.1s0.1,0.1,0.2,0.1
				c0.3,0.1,0.5,0.4,0.6,0.8s0.2,0.9,0.3,1.4C-59.3,18.9-59.1,18.6-59.2,18.3z"/>
			<path class="st3" d="M-56.3,18.1c-0.3-0.3-0.6-0.8-0.8-1.2c-0.1-0.1-0.1-0.2-0.2-0.3c-0.1-0.1-0.2-0.1-0.3,0s-0.1,0.2-0.1,0.3
				c0,0,0.1,0.1,0.2,0.1c0.3,0.1,0.6,0.4,0.7,0.7c0.1,0.2,0.3,0.5,0.4,0.7C-56.1,18.6-56.1,18.3-56.3,18.1z"/>
		</g>
	</g>
</symbol>
<rect x="8.8" y="3.8" class="st4" width="162.2" height="42.3"/>
<rect x="9" y="3.9" class="st4" width="162.2" height="42.3"/>
<rect x="8.9" y="4" class="st4" width="162.2" height="42.3"/>
<use xlink:href="#Nuevo_símbolo_6"  width="250.8" height="62.9" id="XMLID_1_" x="-128" y="-31.5" transform="matrix(0.6942 0 0 -0.6942 91.7791 25.1041)" style="overflow:visible;"/>
</svg>
